<?xml version="1.0" encoding="UTF-8"?><svg id="_圖層_2" xmlns="http://www.w3.org/2000/svg" viewBox="0 0 35.41 53.41"><defs><style>.cls-1{fill:#ffa000;}</style></defs><g id="Graphic"><g><path class="cls-1" d="M.8,35.71C.8,26.37,17.7,.78,17.7,.78c0,0,16.9,25.59,16.9,34.93s-7.57,16.9-16.9,16.9S.8,45.04,.8,35.71Z"/><path class="cls-1" d="M17.7,53.41C7.94,53.41,0,45.47,0,35.71S16.34,1.39,17.03,.34c.3-.45,1.04-.45,1.34,0,.7,1.05,17.03,25.9,17.03,35.37s-7.94,17.7-17.7,17.7Zm0-51.15C14.58,7.12,1.61,27.76,1.61,35.71c0,8.88,7.22,16.1,16.1,16.1s16.1-7.22,16.1-16.1c0-7.95-12.97-28.59-16.1-33.45Z"/></g></g></svg>